<?xml version="1.0" encoding="utf-8"?>
<!-- Generator: Adobe Illustrator 27.7.0, SVG Export Plug-In . SVG Version: 6.00 Build 0)  -->
<svg version="1.1" id="Layer_1" xmlns="http://www.w3.org/2000/svg" xmlns:xlink="http://www.w3.org/1999/xlink" x="0px" y="0px"
	 viewBox="0 0 511.7 137.9" style="enable-background:new 0 0 511.7 137.9;" xml:space="preserve">
<style type="text/css">
	.st0{clip-path:url(#SVGID_00000085961027939369796580000001774943149942027943_);fill:#1B73AB;}
	.st1{clip-path:url(#SVGID_00000085961027939369796580000001774943149942027943_);fill:#8D847E;}
</style>
<g>
	<defs>
		<rect id="SVGID_1_" width="511.7" height="137.9"/>
	</defs>
	<clipPath id="SVGID_00000072997082316343997920000004718980396255208097_">
		<use xlink:href="#SVGID_1_"  style="overflow:visible;"/>
	</clipPath>
	<path style="clip-path:url(#SVGID_00000072997082316343997920000004718980396255208097_);fill:#1B73AB;" d="M92,34.8H39.4
		c-7.5,0-13.5,6-13.5,13.5v15.6c0,7.2,5.8,13,13,13h38.3c1.8,0,3.3,1.5,3.3,3.3v8.1c0,1.5-0.8,2.2-2.3,2.2l-50.6,0.1
		c-0.9,0-1.9,0.9-1.9,1.8l0.3,12.3h56c7.3,0,13.2-5.9,13.2-13.2V75.9c0-7.3-6-13.5-13.3-13.5l-38.5-0.1c-1.6,0-2.9-1.1-2.9-2.6
		l0-8.3c0-1.3,1.5-1.8,2.8-1.8l50,0.2c1.1,0,1.9-0.9,1.9-1.9v-10C95.1,36.2,93.7,34.8,92,34.8"/>
	<path style="clip-path:url(#SVGID_00000072997082316343997920000004718980396255208097_);fill:#1B73AB;" d="M158.3,35.2h-41
		c-7.5,0-13.6,6.1-13.6,13.6v42.7c0,7.4,6,13.4,13.4,13.4h41.3c7.9,0,14.4-6.4,14.4-14.4v-41C172.7,41.6,166.3,35.2,158.3,35.2
		 M158.9,88.4c0,1.4-1.1,2.5-2.5,2.5h-36.8c-1.2,0-2.1-0.9-2.1-2.1V51.4c0-1.2,0.9-2.1,2.1-2.1h37.2c1.2,0,2.1,1,2.1,2.1V88.4z"/>
	<path style="clip-path:url(#SVGID_00000072997082316343997920000004718980396255208097_);fill:#1B73AB;" d="M247.9,35.6h-52
		c-7.8,0-14.2,6.3-14.2,14.2v52.9c0,1.1,0.9,2,2,2h9.3c1.4,0,2.4-1.1,2.4-2.4V78.2c0-0.7,0.6-1.3,1.3-1.3h50.7
		c1.6,0,2.9-1.3,2.9-2.9v-8.8c0-1.2-1-2.2-2.2-2.2h-50.9c-1,0-1.7-0.8-1.7-1.7V50.5c0-0.9,0.7-1.6,1.6-1.6h50.8
		c1.4,0,2.5-1.1,2.5-2.5V38C250.2,36.6,249.2,35.6,247.9,35.6"/>
	<path style="clip-path:url(#SVGID_00000072997082316343997920000004718980396255208097_);fill:#8D847E;" d="M404,35.1h-65.2
		c-1,0-1.9,0.8-1.9,1.9v10.5c0,1.2,1,2.2,2.2,2.2h23.7c0.9,0,1.6,0.7,1.6,1.6v37.4c0,1-0.8,1.7-1.7,1.7h-23.6
		c-1.2,0-2.1,0.9-2.1,2.1v10.7c0,0.9,0.8,1.7,1.7,1.7h65.6c1.1,0,1.9-0.9,1.9-1.9V92.1c0-1-0.8-1.7-1.7-1.7h-23.7
		c-0.9,0-1.7-0.8-1.7-1.7V50.9c0-0.7,0.6-1.3,1.3-1.3h24.1c1,0,1.8-0.8,1.8-1.8V37.2C406.2,36.1,405.2,35.1,404,35.1"/>
	<path style="clip-path:url(#SVGID_00000072997082316343997920000004718980396255208097_);fill:#8D847E;" d="M314.7,35.6h-53.1
		c-1.3,0-2.4,1.1-2.4,2.4v64.8c0,1,0.8,1.8,1.8,1.8h10.6c0.9,0,1.7-0.8,1.7-1.7V78.7c0-1,0.8-1.8,1.8-1.8h3.8c1.1,0,2.1,0.4,2.8,1.1
		l6.7,6.3l18.9,18.9c0.9,0.9,2.1,1.4,3.3,1.4h16c0.9,0,1.6-0.7,1.6-1.6V92.2c0-0.7-0.6-1.3-1.3-1.3l-12.1-0.3
		c-0.4,0-0.7-0.2-0.9-0.4L303,78.5c-0.5-0.7,0-1.7,0.9-1.7l10.4,0.1c7.7,0,13.9-6.2,13.9-13.9V49.1
		C328.3,41.6,322.2,35.6,314.7,35.6 M314.6,62.7h-39.9c-0.8,0-1.4-0.6-1.4-1.4V50.5c0-0.7,0.6-1.3,1.3-1.3h38c1.1,0,2,0.9,2,2V62.7z
		"/>
	<path style="clip-path:url(#SVGID_00000072997082316343997920000004718980396255208097_);fill:#8D847E;" d="M482.7,90.8
		c-4.6-4.9-9.2-9.9-13.8-14.8c-1.8-1.7-3.5-3.5-5.3-5.2c-0.5-0.5-0.5-1.3,0-1.9l6-6.3v-0.1h0.1c1.8-2,3.4-3.6,4.4-4.6
		c2.2-2.2,3.3-3,5.1-4.8c1.7-1.8,2.8-3.4,3.6-4.4c0.5-1.7,0.9-3.4,1.4-5.1c0-2.4,0-4.7,0.1-7.1c0-0.7-0.9-1.3-1.5-1.3h-11.4
		c-0.9,0-1.7,0.8-1.7,1.7v3.9c-0.2,0.6-0.5,1.6-1.3,2.6c-0.5,0.7-1.1,1.1-1.5,1.4c-1.7,1.7-3.4,3.4-5.1,5.1l-10.4,10.7
		c-0.9,1-2.5,1-3.4,0L436.5,49l-7-7.2l-0.1-4.1c0-1.4-1.1-2.4-2.4-2.4h-10.6c-0.7,0-1.4,0.6-1.4,1.4v9.7l1,1.9
		c0.7,1.4,1.7,2.7,2.8,3.8l10.5,10.6h0v0l5.6,5.7c0.7,0.7,0.7,1.9,0,2.6l-5.3,5.5l-1.4,1.2l-12.6,13.6l-1,2.8v9
		c0,0.8,0.7,1.5,1.5,1.5h11.6c0.9,0,1.6-0.7,1.6-1.6l-0.1-4.9l6.7-7.4l9.7-9.8l3-2.8l0.9-0.1l0.7,0.2l1.2,0.9
		c1.1,0.9,2.5,2.1,3.9,3.6c1.3,1.3,1.8,2.1,3.5,4c1,1.1,2.2,2.5,3.6,4c0.5,0.4,1.2,1,2,1.8c0.7,0.6,1.5,1.4,2.3,2.3
		c0.8,0.9,1.8,2.2,2.9,3.9v4.6c0,0.7,0.6,1.2,1.2,1.2h10.9c1.2,0,2.1-1,2.1-2.1v-8.7C483.5,92.8,483.1,91.8,482.7,90.8"/>
</g>
</svg>
